<svg id="Capa_1" enable-background="new 0 0 512 512" height="512" viewBox="0 0 512 512" width="512" xmlns="http://www.w3.org/2000/svg"><g><g id="Google_Groups_2_"><g><path d="m15 512c-1.934 0-3.882-.366-5.742-1.143-5.611-2.314-9.258-7.793-9.258-13.857v-452c0-24.814 20.186-45 45-45h422c24.814 0 45 20.186 45 45v331c0 24.814-20.186 45-45 45h-30c-8.291 0-15-6.709-15-15v-315h-332v240h196c3.984 0 7.793 1.582 10.605 4.395l60 60c4.292 4.292 5.581 10.737 3.252 16.348-2.314 5.61-7.793 9.257-13.857 9.257h-234.789l-85.605 86.605c-2.872 2.872-6.71 4.395-10.606 4.395z" fill="#fff5f5"/></g></g><g id="Google_Groups_3_"><g fill="#e3e7ea"><path d="m356.605 395.395-60-60c-2.812-2.813-6.621-4.395-10.605-4.395h-30v90h90c6.064 0 11.543-3.647 13.857-9.258 2.33-5.61 1.04-12.055-3.252-16.347z"/><path d="m467 0h-211v91h166v315c0 8.291 6.709 15 15 15h30c24.814 0 45-20.186 45-45v-331c0-24.814-20.186-45-45-45z"/></g></g><g><g><g><g><path d="m437 512c-3.896 0-7.734-1.523-10.605-4.395l-146.606-146.605h-204.789c-8.291 0-15-6.709-15-15v-270c0-8.291 6.709-15 15-15h362c8.291 0 15 6.709 15 15v421c0 6.064-3.647 11.543-9.258 13.857-1.86.777-3.808 1.143-5.742 1.143z" fill="#4086f4"/></g></g></g></g><path d="m437 61h-181v300h23.789l146.605 146.605c2.872 2.872 6.71 4.395 10.606 4.395 1.934 0 3.882-.366 5.742-1.143 5.61-2.314 9.258-7.793 9.258-13.857v-421c0-8.291-6.709-15-15-15z" fill="#4175df"/><g><g><g><g><path d="m196 211c-24.814 0-45-20.186-45-45s20.186-45 45-45 45 20.186 45 45-20.186 45-45 45z" fill="#fff5f5"/></g></g></g></g><g><path d="m316 211c-24.814 0-45-20.186-45-45s20.186-45 45-45 45 20.186 45 45-20.186 45-45 45z" fill="#80aef8"/></g><path d="m256 225.224c-19.274-13.014-51.361-14.224-60-14.224-12.524 0-75 1.919-75 39.844v35.156c0 8.291 6.709 15 15 15h120l31-40s-11-13-31-35.776z" fill="#fff5f5"/><path d="m376 301c8.291 0 15-6.709 15-15v-35.156c0-37.925-62.476-39.844-75-39.844-8.639 0-40.726 1.21-60 14.224v75.776z" fill="#80aef8"/></g></svg>