<svg id="Capa_1" enable-background="new 0 0 512 512" height="512" viewBox="0 0 512 512" width="512" xmlns="http://www.w3.org/2000/svg"><g><path d="m452 92h-315.566l49.179 142.55 129.953 185.45-34.234 92h170.668c33.084 0 60-26.916 60-60v-300c0-33.084-26.916-60-60-60z" fill="#e3e7ea"/><path d="m185.613 234.55 95.719 277.45 94.234-92z" fill="#4254b6"/><path d="m230.181 0h-82.681l-60 210 60 210h228.066z" fill="#4175df"/><path d="m60 0c-33.084 0-60 26.916-60 60v300c0 33.084 26.916 60 60 60h87.5v-420z" fill="#4086f4"/><path d="m147.5 122.5-20 15 20 15c13.558 0 26.479 4.718 36.8 13.335l19.2-23.042c-15.707-13.114-35.37-20.293-56-20.293z" fill="#e3e7ea"/><path d="m147.5 195v30h55.516c-6.615 24.454-28.998 42.5-55.516 42.5l-20 16.364 20 13.636c48.248 0 87.5-39.252 87.5-87.5v-15z" fill="#e3e7ea"/><path d="m90 210c0-31.706 25.794-57.5 57.5-57.5v-30c-48.248 0-87.5 39.252-87.5 87.5s39.252 87.5 87.5 87.5v-30c-31.706 0-57.5-25.794-57.5-57.5z" fill="#fff"/></g></svg>